<?xml version="1.0" encoding="UTF-8" standalone="no"?>
<!-- Created with Inkscape (http://www.inkscape.org/) -->

<svg
   width="210mm"
   height="297mm"
   viewBox="0 0 210 297"
   version="1.1"
   id="svg1"
   sodipodi:docname="Background.svg"
   inkscape:export-filename="Background.png"
   inkscape:export-xdpi="300"
   inkscape:export-ydpi="300"
   inkscape:version="1.4 (86a8ad7, 2024-10-11)"
   xmlns:inkscape="http://www.inkscape.org/namespaces/inkscape"
   xmlns:sodipodi="http://sodipodi.sourceforge.net/DTD/sodipodi-0.dtd"
   xmlns:xlink="http://www.w3.org/1999/xlink"
   xmlns="http://www.w3.org/2000/svg"
   xmlns:svg="http://www.w3.org/2000/svg">
  <sodipodi:namedview
     id="namedview1"
     pagecolor="#505050"
     bordercolor="#eeeeee"
     borderopacity="1"
     inkscape:showpageshadow="0"
     inkscape:pageopacity="0"
     inkscape:pagecheckerboard="0"
     inkscape:deskcolor="#505050"
     inkscape:document-units="mm"
     inkscape:zoom="1.0467522"
     inkscape:cx="396.94207"
     inkscape:cy="637.68671"
     inkscape:window-width="2560"
     inkscape:window-height="1377"
     inkscape:window-x="-8"
     inkscape:window-y="-8"
     inkscape:window-maximized="1"
     inkscape:current-layer="layer1" />
  <defs
     id="defs1">
    <linearGradient
       id="linearGradient1"
       inkscape:collect="always">
      <stop
         style="stop-color:#171717;stop-opacity:1;"
         offset="0"
         id="stop1" />
      <stop
         style="stop-color:#3a5cd3;stop-opacity:0.8448;"
         offset="0.49414825"
         id="stop3" />
      <stop
         style="stop-color:#afafaf;stop-opacity:1;"
         offset="1"
         id="stop2" />
    </linearGradient>
    <linearGradient
       inkscape:collect="always"
       xlink:href="#linearGradient1"
       id="linearGradient2"
       x1="105.1506"
       y1="69.636375"
       x2="105.1506"
       y2="169.48024"
       gradientUnits="userSpaceOnUse"
       gradientTransform="translate(-0.05531944,29.242129)" />
  </defs>
  <g
     inkscape:label="Layer 1"
     inkscape:groupmode="layer"
     id="layer1">
    <rect
       style="fill:url(#linearGradient2);stroke-width:0.264583"
       id="rect1"
       width="200"
       height="100"
       x="5"
       y="98.5" />
    <path
       sodipodi:type="star"
       style="fill:#ffffff;fill-opacity:1;stroke-width:0.264583"
       id="path4"
       inkscape:flatsided="false"
       sodipodi:sides="10"
       sodipodi:cx="22.49617"
       sodipodi:cy="23.507235"
       sodipodi:r1="106.64459"
       sodipodi:r2="25.871494"
       sodipodi:arg1="0.31873713"
       sodipodi:arg2="0.63289639"
       inkscape:rounded="0.019026382"
       inkscape:randomized="0"
       d="M 123.76928,56.926189 C 123.27782,58.415502 44.28444,37.545222 43.356815,38.809774 42.429189,40.074327 86.05766,109.15457 84.784667,110.07058 83.511675,110.98659 31.871929,47.671029 30.378179,48.148829 c -1.493751,0.4778 -6.801922,82.009061 -8.370212,82.001881 -1.568289,-0.007 -6.12977,-81.583622 -7.619084,-82.075079 C 12.89957,47.584175 -39.317703,110.42429 -40.582256,109.49666 -41.846809,108.56903 2.4123052,39.891134 1.4962961,38.618142 0.58028698,37.345149 -78.600865,57.491323 -79.078665,55.997572 -79.556465,54.503822 -3.3822326,24.957088 -3.3750532,23.388799 -3.3678737,21.820509 -79.268395,-8.4224066 -78.776939,-9.9117199 -78.285482,-11.401033 0.70789981,9.4692475 1.6355255,8.2046947 2.5631513,6.9401418 -41.06532,-62.140098 -39.792327,-63.056107 c 1.272992,-0.916009 52.912738,62.39954755 54.406488,61.9217475 1.493751,-0.4778 6.801922,-82.0090605 8.370212,-82.0018805 1.568289,0.0072 6.12977,81.5836216 7.619084,82.0750778 C 32.09277,-0.56970604 84.310043,-63.409816 85.574596,-62.48219 86.839149,-61.554565 42.580035,7.1233348 43.496044,8.3963276 44.412053,9.6693204 123.5932,-10.476854 124.071,-8.983103 c 0.4778,1.4937505 -75.696427,31.040484 -75.703607,32.608773 -0.0072,1.56829 75.893337,31.811206 75.401887,33.300519 z"
       transform="translate(82.50383,124.99277)" />
  </g>
</svg>
