<?xml version="1.0" encoding="UTF-8" standalone="no"?>
<!-- Created with Inkscape (http://www.inkscape.org/) -->

<svg
   width="210mm"
   height="297mm"
   viewBox="0 0 210 297"
   version="1.1"
   id="svg1"
   inkscape:version="1.4 (86a8ad7, 2024-10-11)"
   sodipodi:docname="Logo.svg"
   xmlns:inkscape="http://www.inkscape.org/namespaces/inkscape"
   xmlns:sodipodi="http://sodipodi.sourceforge.net/DTD/sodipodi-0.dtd"
   xmlns="http://www.w3.org/2000/svg"
   xmlns:svg="http://www.w3.org/2000/svg">
  <sodipodi:namedview
     id="namedview1"
     pagecolor="#505050"
     bordercolor="#eeeeee"
     borderopacity="1"
     inkscape:showpageshadow="0"
     inkscape:pageopacity="0"
     inkscape:pagecheckerboard="0"
     inkscape:deskcolor="#505050"
     inkscape:document-units="mm"
     inkscape:zoom="2.0935045"
     inkscape:cx="398.13624"
     inkscape:cy="448.76904"
     inkscape:window-width="2560"
     inkscape:window-height="1377"
     inkscape:window-x="-8"
     inkscape:window-y="-8"
     inkscape:window-maximized="1"
     inkscape:current-layer="layer1" />
  <defs
     id="defs1" />
  <g
     inkscape:label="Layer 1"
     inkscape:groupmode="layer"
     id="layer1">
    <path
       style="fill:#000000;stroke-width:0.264583"
       d="m 68.869365,128.40511 c 1.091541,-1.73521 1.427088,-3.83138 2.527657,-5.56085 0.515755,-0.81047 1.090075,-1.5956 1.769364,-2.27489 0.21481,-0.21481 0.563816,-0.27216 0.758296,-0.50553 0.241223,-0.28947 0.270147,-0.71683 0.505534,-1.01107 0.306903,-0.38363 0.916434,-0.4109 1.263827,-0.75829 0.13322,-0.13322 0.119547,-0.37232 0.252767,-0.50554 0.347393,-0.34739 0.916437,-0.4109 1.26383,-0.75829 0.21481,-0.21481 0.268314,-0.56853 0.505531,-0.7583 0.208056,-0.16644 0.550246,-0.0863 0.758299,-0.25277 0.592447,-0.47396 0.282556,-0.6939 0.758298,-1.01106 0.627301,-0.4182 0.671164,-0.1885 1.516595,-0.50553 2.511761,-0.94191 -0.37574,0.0232 1.769361,-1.26383 0.144497,-0.0867 0.34567,0.0533 0.505534,0 0.349105,-0.11637 0.257792,-0.5725 0.505532,-0.7583 0.373525,-0.28015 1.0893,-0.47344 1.516594,-0.7583 0.153059,-0.10204 0.494956,-0.75301 0.505531,-0.7583 0.150723,-0.0754 0.365324,0.0935 0.505534,0 0.396571,-0.26438 0.649187,-0.70088 1.011063,-1.01106 0.348366,-0.2986 4.136776,-2.44506 4.549788,-2.52766 0.504664,-0.10093 1.048586,-0.0188 1.516595,-0.25277 0.106576,-0.0533 0.137168,-0.22386 0.252767,-0.25276 0.870143,-0.21754 1.891895,-0.0306 2.780424,-0.25277 1.571466,-0.39287 3.31752,-1.44552 5.055314,-1.01107 0.1156,0.0289 0.14619,0.19948 0.25277,0.25277 0.27388,0.13694 1.56111,0.48239 1.76936,0.50553 0.4187,0.0465 0.84255,0 1.26383,0 0.50553,0.16851 0.99231,0.41021 1.51659,0.50554 0.41449,0.0754 0.84513,-0.0465 1.26383,0 0.69054,0.0767 1.33433,0.40727 2.02213,0.50553 1.23215,0.17602 2.14629,0.37841 3.28596,0.7583 0.37829,0.12609 0.87622,-0.0969 1.26383,0 2.03311,0.50828 -0.52641,-0.008 0.7583,0.50553 0.32254,0.12902 0.69175,0.11592 1.01106,0.25276 0.27922,0.11967 0.47385,0.39887 0.7583,0.50554 0.40226,0.15085 0.85233,0.12931 1.26383,0.25276 0.99737,0.29921 1.99227,0.83758 3.03319,1.01107 0.24933,0.0416 0.51526,-0.0694 0.7583,0 0.3623,0.10351 0.66473,0.3571 1.01106,0.50553 0.31931,0.13684 0.76542,0.007 1.01107,0.25276 0.0548,0.0549 0.20348,0.4809 0.25276,0.50554 0.15072,0.0754 0.34567,-0.0533 0.50553,0 0.66425,0.22141 1.37934,2.00762 1.76937,2.52766 -0.62373,0.76524 0.68753,0.43477 0.75829,0.50553 0.0596,0.0596 -0.0596,0.19319 0,0.25276 0.0596,0.0596 0.19319,-0.0596 0.25277,0 0.0596,0.0596 -0.0377,0.17741 0,0.25277 0.13586,0.27171 0.31576,0.52108 0.50553,0.7583 0.44224,0.5528 1.09203,0.9505 1.5166,1.51659 0.37815,0.50421 0.46053,0.85094 1.01106,1.26383 0.52338,0.39254 1.5973,0.83901 2.02213,1.26383 0.13322,0.13322 0.10204,0.39249 0.25276,0.50553 0.21316,0.15987 0.52983,0.11569 0.7583,0.25277 0.87466,0.5248 0.22811,0.46855 0.7583,1.26383 0.70192,1.05288 1.87118,1.93906 2.52766,3.03319 0.54981,0.91635 0.0986,0.49301 0.25277,1.26383 0.11805,0.59025 0.27216,1.04986 0.50553,1.5166 0.13481,0.26962 -0.13481,0.74144 0,1.01106 0.46087,0.92174 0.28194,1.57496 0.7583,2.52766 0.4732,0.9464 0.9879,1.67673 1.26383,2.78043 -0.18775,0.4678 0.43185,0.46358 0.50553,0.7583 0.0613,0.24521 -0.0496,0.51043 0,0.75829 0.10687,0.53439 0.53302,1.06604 0.7583,1.5166 0.11303,0.22608 -0.0799,0.5185 0,0.7583 0.0377,0.11304 0.16851,0.16851 0.25276,0.25276 0.0843,0.25277 0.20051,0.49704 0.25277,0.7583 0.11378,0.5689 0.12804,2.78375 0.25276,3.03319 0.61263,1.22525 0.19589,3.11533 0.50554,4.04426 0.0266,0.0799 0.22612,-0.0799 0.25276,0 0.13901,0.41702 0.10522,2.10677 0,2.52766 -0.63626,2.54503 -2.12777,4.76106 -3.28596,7.07744 -0.16851,0.33702 -0.38637,0.6536 -0.50553,1.01107 -0.0533,0.15986 0.0754,0.35481 0,0.50553 -0.0377,0.0754 -0.19319,-0.0596 -0.25276,0 -0.11916,0.11915 0.0753,0.35481 0,0.50553 -0.38542,0.77082 -0.20039,-0.4623 -0.50554,0.7583 -0.17841,0.71366 -0.0789,1.311 -0.50553,2.02212 -0.12261,0.20436 -0.41703,0.28427 -0.50553,0.50554 -0.0939,0.23468 0.0496,0.51044 0,0.75829 -0.20161,1.00803 -0.95611,1.68694 -1.5166,2.52766 -0.20901,0.31352 -0.23909,0.74463 -0.50553,1.01107 -0.13322,0.13322 -0.34877,0.14826 -0.50553,0.25276 -0.38588,0.25726 -0.37242,0.75382 -0.7583,1.01107 -0.8183,0.54553 -1.83711,1.33158 -2.52766,2.02213 -0.29789,0.29788 -0.38149,0.82266 -0.75829,1.01106 -0.41634,0.20817 -1.15116,0.64563 -1.5166,1.01106 -0.21481,0.21481 -0.29072,0.54349 -0.50553,0.7583 -0.55166,0.55166 -1.2793,0.86318 -1.76936,1.5166 -0.11305,0.15072 -0.11955,0.37231 -0.25277,0.50553 -0.13322,0.13322 -0.37231,0.11955 -0.50553,0.25277 -0.4248,0.42479 -0.70674,1.49081 -1.26383,1.76936 -0.49101,0.2455 -0.95994,0.73273 -1.5166,1.01106 -0.89872,0.44937 -1.92654,0.69457 -2.78042,1.26383 -0.19829,0.13219 -0.29238,0.39896 -0.50554,0.50553 -0.20221,0.10111 -0.55608,-0.1011 -0.75829,0 -0.36494,0.18247 -0.64613,0.32307 -1.01107,0.50554 -0.20221,0.1011 -0.55608,-0.10111 -0.7583,0 -0.97321,0.4866 -2.16365,0.8149 -3.28595,1.26382 -0.28206,0.11283 -0.4701,0.40947 -0.7583,0.50554 -0.23979,0.0799 -0.53222,-0.11304 -0.7583,0 -0.10657,0.0533 -0.13972,0.21508 -0.25276,0.25276 -0.17184,0.0573 -1.31885,0.0989 -1.5166,0 -0.10658,-0.0533 -0.13717,-0.22386 -0.25277,-0.25276 -0.57217,-0.14305 -1.97537,-0.0921 -2.52766,0 -0.65994,0.10999 -0.98853,0.79984 -1.51659,1.01106 -0.58392,0.23357 -1.40124,0.0976 -2.02213,0.25277 -0.62683,0.1567 -1.10661,0.62574 -1.76936,0.75829 -0.72889,0.14578 -2.490823,0.19879 -3.285954,0 -0.182774,-0.0457 -0.319694,-0.22179 -0.505532,-0.25276 -1.23445,-0.20574 -0.725371,0.26923 -1.769361,-0.25277 -0.635659,-0.31783 -1.290042,-0.82804 -2.022128,-1.01106 -0.569368,-0.14234 -1.210448,-0.0665 -1.769362,-0.25277 -0.11304,-0.0377 -0.139726,-0.21508 -0.252767,-0.25276 -0.159861,-0.0533 -0.342051,0.0409 -0.505531,0 -0.633902,-0.15848 -1.087589,-0.66091 -1.769362,-0.7583 -0.333634,-0.0477 -0.677428,0.0477 -1.011062,0 -1.260327,-0.18005 -2.364121,-0.8723 -3.538726,-1.26383 -0.449971,-0.14999 -1.06662,-0.10278 -1.516594,-0.25277 -0.363389,-0.12113 -0.638548,-0.63412 -1.011063,-0.75829 -0.606983,-0.20233 -1.501354,-0.23753 -2.022128,-0.7583 -0.133221,-0.13322 -0.119547,-0.37231 -0.252767,-0.50553 -0.220859,-0.22087 -1.066406,-0.40683 -1.26383,-0.50554 -1.051952,-0.52597 0.270216,0.0174 -0.252765,-0.50553 -0.119155,-0.11915 -0.386376,0.11916 -0.505531,0 -0.21481,-0.21481 -0.290724,-0.54349 -0.505534,-0.7583 -0.364017,-0.36402 -0.942793,-0.5295 -1.26383,-1.01106 -0.104505,-0.15676 -0.119547,-0.37231 -0.252764,-0.50553 -0.133221,-0.13322 -0.372314,-0.11955 -0.505532,-0.25277 -0.13322,-0.13322 -0.119547,-0.37231 -0.252767,-0.50553 -0.13322,-0.13322 -0.372311,-0.11955 -0.505531,-0.25277 -0.308002,-0.308 -0.450297,-0.95582 -0.758299,-1.26383 -0.05958,-0.0596 -0.215085,0.0754 -0.252764,0 -0.07536,-0.15072 0.04087,-0.34205 0,-0.50553 -0.104362,-0.41744 -1.423226,-2.43429 -1.769364,-2.78042 -0.168511,-0.0843 -0.337021,-0.16851 -0.505532,-0.25277 0,-0.0843 0.05958,-0.19319 0,-0.25277 -0.05958,-0.0596 -0.193188,0.0596 -0.252764,0 -0.98648,-0.98647 0.05851,-0.13574 -0.252767,-0.75829 -0.335042,-0.67009 -0.928788,-1.35205 -1.26383,-2.02213 -0.403503,-0.80701 -0.604763,-1.71506 -1.011063,-2.52766 -0.309435,-0.61887 -0.843833,-1.3532 -1.011065,-2.02213 -0.268267,-1.07306 -0.517869,-2.0468 -1.011063,-3.03319 -0.134808,-0.26961 0.134808,-0.74145 0,-1.01106 -0.05329,-0.10658 -0.215085,-0.13973 -0.252767,-0.25277 -0.131728,-0.39519 0.0044,-3.0288 -0.252765,-3.28596 -0.05958,-0.0596 -0.193188,0.0596 -0.252767,0 -0.171196,-0.17119 -1.119751,-2.85372 -1.26383,-3.28595 -0.127137,-0.38142 -0.06769,-0.89369 -0.252764,-1.26383 -0.05329,-0.10658 -0.215088,-0.13973 -0.252767,-0.25277 -0.176935,-0.53081 0.176937,-1.23855 0,-1.76936 -0.03768,-0.11304 -0.215085,-0.13973 -0.252764,-0.25277 -0.106577,-0.31972 0.106574,-0.69133 0,-1.01106 -0.03768,-0.11304 -0.215088,-0.13973 -0.252767,-0.25277 -0.106405,-0.31921 -0.08868,-1.41463 0,-1.76936 0.346366,-1.38546 1.626449,-3.2529 2.274892,-4.54978 0.227127,-0.45425 -0.157649,-1.29641 0,-1.76937 0.02664,-0.0799 0.215088,0.0754 0.252767,0 0.259154,-0.51831 -0.142203,-1.45332 0,-2.02212 0.04569,-0.18278 0.215818,-0.3208 0.252765,-0.50554 0.06609,-0.33047 -0.23831,-0.77275 0,-1.01106 0.05958,-0.0596 0.215088,0.0754 0.252767,0 0.15072,-0.30144 -0.15072,-0.70962 0,-1.01106 0.03768,-0.0754 0.193188,0.0596 0.252767,0 0.119155,-0.11916 -0.06973,-0.35213 0,-0.50554 0.389803,-0.85756 0.842552,-1.6851 1.26383,-2.52766 z"
       id="path2" />
    <g
       id="g4"
       transform="matrix(0.62318837,0,0,0.62318837,59.193026,67.072732)">
      <rect
         style="fill:#000000;stroke-width:0.228207"
         id="rect2"
         width="17.440849"
         height="6.4771309"
         x="60.158295"
         y="60.505848"
         ry="0.63191491" />
      <path
         id="path3"
         style="fill:#000000;stroke-width:0.259733"
         d="m 68.910079,50.079051 a 7.4249997,6.9878311 0 0 0 -7.376811,6.356886 c -0.02918,0.07767 -0.04806,0.160391 -0.04806,0.248001 v 0.382958 6.534171 c 0,0.403371 0.336935,0.728067 0.75551,0.728067 h 13.339237 c 0.418575,0 0.75551,-0.324696 0.75551,-0.728067 v -6.534171 -0.382958 c 0,-0.06293 -0.01092,-0.123102 -0.02635,-0.181269 a 7.4249997,6.9878311 0 0 0 -7.399032,-6.423618 z" />
    </g>
    <g
       id="g8"
       transform="matrix(0,0.44519313,-0.44519313,0,156.00921,128.90766)">
      <rect
         style="fill:#000000;stroke-width:0.264583"
         id="rect4"
         width="23.235228"
         height="11.528248"
         x="23.052885"
         y="17.806208"
         ry="0" />
      <rect
         style="fill:#000000;stroke-width:0.264583"
         id="rect5"
         width="3.0384529"
         height="4.2895803"
         x="33.151272"
         y="28.819302"
         ry="0" />
      <g
         id="g7">
        <g
           id="g5"
           transform="translate(0,-0.52916667)">
          <ellipse
             style="fill:#ffffff;fill-opacity:1;stroke-width:0.264583"
             id="path5"
             cx="30.027063"
             cy="23.235228"
             rx="3.3959179"
             ry="3.3065515" />
          <ellipse
             style="fill:#ffffff;fill-opacity:1;stroke-width:0.264583"
             id="path5-8"
             cx="39.313934"
             cy="23.258726"
             rx="3.3959179"
             ry="3.3065515" />
        </g>
        <path
           id="path6"
           style="fill:#ffffff;fill-opacity:1;stroke-width:0.264583"
           d="m 32.190288,26.287496 a 2.4960637,1.611383 0 0 0 2.48047,1.453658 2.4960637,1.611383 0 0 0 2.479951,-1.453658 z" />
      </g>
    </g>
    <g
       id="g13"
       transform="matrix(0,0.28211853,-0.28211853,0,158.49311,119.01688)">
      <rect
         style="fill:#000000;fill-opacity:1;stroke-width:0.264583"
         id="rect8"
         width="2.5276597"
         height="19.652554"
         x="115.32447"
         y="52.512127" />
      <rect
         style="fill:#000000;fill-opacity:1;stroke-width:0.211064"
         id="rect9"
         width="6.9568067"
         height="4.928936"
         x="113.10703"
         y="48.341492" />
      <rect
         style="fill:#000000;fill-opacity:1;stroke-width:0.211064"
         id="rect10"
         width="0.96510607"
         height="3.4123404"
         x="113.71021"
         y="45.240147" />
      <rect
         style="fill:#000000;fill-opacity:1;stroke-width:0.2595"
         id="rect13"
         width="2.6138294"
         height="1.5797873"
         x="111.21703"
         y="50.016068" />
      <rect
         style="fill:#000000;fill-opacity:1;stroke-width:0.211064"
         id="rect10-5"
         width="0.96510607"
         height="3.4123404"
         x="115.34728"
         y="45.240147" />
      <rect
         style="fill:#000000;fill-opacity:1;stroke-width:0.211064"
         id="rect10-1"
         width="0.96510607"
         height="3.4123404"
         x="116.98434"
         y="45.240147" />
      <rect
         style="fill:#000000;fill-opacity:1;stroke-width:0.211064"
         id="rect10-7"
         width="0.96510607"
         height="3.4123404"
         x="118.62141"
         y="45.240147" />
    </g>
  </g>
</svg>
